<svg width="36" height="31" viewBox="0 0 36 31" fill="none" xmlns="http://www.w3.org/2000/svg">
<path d="M18 0C8.055 0 0 7.11642 0 15.8933C0 22.9167 5.157 28.8727 12.3075 30.9726C13.2075 31.1222 13.5375 30.6302 13.5375 30.2084C13.5375 29.831 13.5225 28.8309 13.515 27.506C8.508 28.4643 7.452 25.3738 7.452 25.3738C6.633 23.5394 5.4495 23.0488 5.4495 23.0488C3.819 22.0636 5.5755 22.0838 5.5755 22.0838C7.383 22.1943 8.3325 23.7214 8.3325 23.7214C9.9375 26.1515 12.546 25.4493 13.575 25.0436C13.737 24.0152 14.2005 23.3157 14.715 22.9181C10.7175 22.5205 6.516 21.1538 6.516 15.0644C6.516 13.3298 7.2135 11.9119 8.3685 10.8C8.166 10.3983 7.5585 8.7823 8.526 6.59347C8.526 6.59347 10.0335 6.16756 13.476 8.22296C14.916 7.86984 16.446 7.69462 17.976 7.68654C19.506 7.69462 21.036 7.86984 22.476 8.22296C25.896 6.16756 27.4035 6.59347 27.4035 6.59347C28.371 8.7823 27.7635 10.3983 27.5835 10.8C28.731 11.9119 29.4285 13.3298 29.4285 15.0644C29.4285 21.17 25.221 22.5138 21.216 22.9046C21.846 23.3817 22.431 24.3562 22.431 25.8455C22.431 27.9724 22.4085 29.6814 22.4085 30.1976C22.4085 30.6141 22.7235 31.1114 23.646 30.9524C30.8475 28.866 36 22.906 36 15.8933C36 7.11642 27.9405 0 18 0Z" fill="black"/>
</svg>
