<svg width="34" height="34" viewBox="0 0 34 34" fill="none" xmlns="http://www.w3.org/2000/svg">
<path d="M31.486 0H2.51403C1.12604 0 0 1.09176 0 2.43995V31.5639C0 32.9121 1.12604 34 2.51403 34H31.486C32.874 34 34 32.9121 34 31.5639V2.43606C33.9961 1.09176 32.8701 0 31.486 0ZM10.3063 28.4557H5.17272V13.1089H10.3063V28.4557ZM7.74149 11.0147H7.7063C5.98206 11.0147 4.87167 9.8375 4.87167 8.3611C4.87167 6.85362 6.02116 5.70746 7.77277 5.70746C9.5322 5.70746 10.6113 6.85362 10.6426 8.3611C10.6426 9.8375 9.5322 11.0147 7.74149 11.0147ZM28.8234 28.4557H23.6858V20.2461C23.6858 18.1831 22.9469 16.7766 21.0897 16.7766C19.6665 16.7766 18.822 17.7246 18.4506 18.6415C18.3176 18.9718 18.2863 19.4302 18.2863 19.8848V28.4635H13.1488C13.1488 28.4635 13.2153 14.5542 13.1488 13.1128H18.2863V15.2847C18.9667 14.2395 20.1904 12.7515 22.9117 12.7515C26.2898 12.7515 28.8234 14.9466 28.8234 19.6634V28.4557Z" fill="#3B8DBF"/>
</svg>
